<svg version="1.1" id="Layer_1" xmlns="http://www.w3.org/2000/svg" xmlns:xlink="http://www.w3.org/1999/xlink" x="0px" y="0px"
	 width="100%" viewBox="0 0 764 120" enable-background="new 0 0 764 120" xml:space="preserve">
<path fill="#FCFEFF" opacity="1.000000" stroke="none" 
	d="
M719.000000,121.000000 
	C479.732178,121.000000 240.464371,121.000000 1.098281,121.000000 
	C1.098281,81.076683 1.098281,41.153049 1.098281,1.000000 
	C239.024857,1.000000 477.049774,1.000000 715.535645,1.191970 
	C715.994019,1.639728 715.983765,1.895206 715.547729,2.316864 
	C711.516296,3.014797 707.843140,3.290962 704.300110,4.122097 
	C689.382446,7.621566 679.312256,18.371197 678.061218,31.878454 
	C676.646606,47.152946 683.406311,58.407211 698.381470,64.931686 
	C705.372437,67.977562 712.709290,70.223167 719.744507,73.176437 
	C723.532593,74.766617 727.423889,76.592110 730.547058,79.181694 
	C736.467529,84.090714 735.282471,94.061234 728.800476,97.454285 
	C721.320679,101.369637 711.074036,97.399986 708.084778,89.418724 
	C707.525146,87.924500 707.017578,86.410797 706.591064,85.203392 
	C697.034973,85.203392 687.938782,85.203392 678.818237,85.203392 
	C678.777039,86.012436 678.695496,86.509621 678.735168,86.996948 
	C679.941650,101.817039 691.567322,113.932091 708.365112,117.997246 
	C711.942749,118.863052 715.456726,119.992195 719.000000,121.000000 
M326.767365,115.896118 
	C334.595062,114.309006 338.510834,109.439384 340.829102,101.781044 
	C345.583649,86.074486 351.316803,70.664619 356.624847,55.125023 
	C361.826538,39.896858 367.076172,24.683947 372.071777,9.388225 
	C372.579102,7.834934 372.083771,4.767757 371.014557,4.121020 
	C368.398071,2.538338 367.186371,4.645201 366.364410,7.137284 
	C364.026428,14.225876 361.443939,21.233358 359.023132,28.295204 
	C350.338623,53.629246 341.723480,78.987297 332.916077,104.278458 
	C332.342773,105.924736 330.613556,107.540421 329.008911,108.390785 
	C322.284698,111.954285 314.864197,111.410110 307.695923,110.839851 
	C301.214600,110.324249 296.251221,107.931656 294.297241,100.130432 
	C291.388550,88.517326 286.820801,77.319214 282.948059,65.948235 
	C276.301483,46.432777 269.674408,26.910513 262.933441,7.427689 
	C262.474091,6.100025 261.205353,4.147233 260.190735,4.068869 
	C254.964279,3.665210 256.778656,6.996150 257.660706,9.614935 
	C268.252838,41.062672 279.118439,72.422203 289.271210,104.010933 
	C291.447693,110.782646 295.264038,113.866600 301.545349,115.198524 
	C303.002747,115.507561 304.454437,115.843506 306.082245,116.857376 
	C307.720856,116.928726 309.359467,117.000084 311.834167,117.041588 
	C313.227173,117.071541 314.620209,117.101486 316.465759,117.694527 
	C318.004211,117.177498 319.542633,116.660469 321.513123,116.069565 
	C321.513123,116.069565 321.950928,116.091293 322.107330,116.636200 
	C323.408325,116.392853 324.709351,116.149506 326.767365,115.896118 
M52.495010,118.422783 
	C58.451374,117.926056 64.519714,117.987152 70.341202,116.818535 
	C83.156937,114.245872 92.856789,102.991646 93.924255,90.351845 
	C94.964928,78.029373 88.254105,66.989288 76.702637,62.159405 
	C74.620796,61.288948 72.419952,60.703083 69.718315,59.800072 
	C95.746323,53.206509 94.361214,22.275780 81.277374,11.608198 
	C74.251381,5.879738 66.038155,4.293835 57.492138,4.165047 
	C40.501881,3.909003 23.505037,4.080597 6.510969,4.108504 
	C5.413015,4.110307 4.315524,4.393435 3.227378,4.544370 
	C3.227378,42.605103 3.227378,80.350731 3.227378,118.423164 
	C19.543085,118.423164 35.519871,118.423164 52.495010,118.422783 
M599.669556,53.855656 
	C589.551331,38.400188 579.463623,22.924452 569.262390,7.523966 
	C568.350098,6.146639 566.734375,4.339904 565.388916,4.291169 
	C557.124756,3.991830 548.844299,4.141175 540.427185,4.141175 
	C540.427185,42.499390 540.427185,80.226730 540.427185,118.160934 
	C549.352356,118.160934 557.935608,118.160934 567.065186,118.160934 
	C567.065186,94.565338 567.065186,71.225174 567.065186,46.718533 
	C568.361206,48.526840 568.942505,49.282326 569.465759,50.076057 
	C583.754089,71.750008 598.021118,93.438072 612.358887,115.079231 
	C613.209473,116.363113 614.591736,118.177681 615.776001,118.215919 
	C624.191040,118.487625 632.618958,118.360664 640.999878,118.360664 
	C640.999878,79.925247 640.999878,42.218761 640.999878,4.417437 
	C632.157410,4.417437 623.741882,4.417437 614.812622,4.417437 
	C614.812622,28.228991 614.812622,51.753170 614.812622,75.277351 
	C614.492004,75.375183 614.171387,75.473007 613.850769,75.570839 
	C609.243103,68.541504 604.635498,61.512165 599.669556,53.855656 
M149.337021,113.995003 
	C151.289642,108.374329 153.242279,102.753662 155.241302,96.999474 
	C169.137878,96.999474 182.795105,96.921333 196.447876,97.131996 
	C197.681931,97.151031 199.495117,98.793510 200.001541,100.088051 
	C202.288544,105.934311 204.201965,111.926720 206.222504,117.786850 
	C215.683609,117.786850 224.794113,117.786850 234.186249,117.786850 
	C233.927078,116.585258 233.834702,115.602409 233.504730,114.707130 
	C220.406479,79.168137 207.256271,43.648205 194.235199,8.081001 
	C193.326462,5.598801 192.154114,4.747833 189.580994,4.796253 
	C181.917709,4.940458 174.241989,5.054224 166.587402,4.758385 
	C162.876068,4.614946 161.149963,5.661489 159.824402,9.333973 
	C150.011322,36.521175 139.912476,63.605232 129.906189,90.722710 
	C126.604469,99.670547 123.310844,108.621353 119.856415,117.997208 
	C128.743301,117.997208 136.906555,118.145935 145.053879,117.852440 
	C146.429977,117.802872 147.737411,115.847275 149.337021,113.995003 
M430.097076,21.660931 
	C418.362152,53.581085 406.627228,85.501244 394.758453,117.785431 
	C404.410431,117.785431 413.511475,117.785431 422.812500,117.785431 
	C425.216827,110.888840 427.614594,104.011078 430.059113,96.999168 
	C443.962311,96.999168 457.619904,96.920441 471.273010,97.131371 
	C472.520844,97.150642 474.361298,98.783081 474.865845,100.079315 
	C477.142761,105.928665 479.037628,111.926743 481.051178,117.815765 
	C490.539307,117.815765 499.666687,117.815765 509.466980,117.815765 
	C507.570099,112.660561 505.810852,107.869843 504.044922,103.081589 
	C492.491730,71.755302 480.896118,40.444489 469.447388,9.080070 
	C468.325531,6.006737 467.038544,4.599654 463.490265,4.746905 
	C455.671021,5.071397 447.824890,4.993286 439.998474,4.771387 
	C437.138092,4.690289 435.858734,5.695122 435.024200,8.299961 
	C433.656464,12.569221 431.960510,16.733343 430.097076,21.660931 
M271.456818,27.948679 
	C273.647705,33.886837 275.900269,39.803104 278.018097,45.767208 
	C284.699921,64.584084 291.302582,83.429169 298.047607,102.223244 
	C298.489868,103.455620 299.872101,104.350662 300.817108,105.402618 
	C301.455505,105.000908 302.093933,104.599205 302.732330,104.197502 
	C301.157837,99.675865 299.602295,95.147522 298.005768,90.633667 
	C288.100220,62.627552 278.122650,34.646534 268.365906,6.588704 
	C267.333069,3.618505 266.281647,2.717973 263.421906,4.228895 
	C265.968536,11.887331 268.521393,19.564472 271.456818,27.948679 
M356.994415,29.495848 
	C359.609528,22.175585 362.322968,14.887572 364.745117,7.504008 
	C365.159668,6.240334 364.330566,4.568681 364.075958,3.085496 
	C363.038300,4.040829 361.455109,4.804569 361.042511,5.979424 
	C349.820557,37.931412 338.703644,69.920387 327.665741,101.936470 
	C327.331665,102.905502 328.031860,104.231133 328.249847,105.390526 
	C329.268707,104.666153 330.768982,104.161430 331.218109,103.177109 
	C332.691620,99.947441 333.839752,96.563271 335.012482,93.203407 
	C342.328949,72.241722 349.618103,51.270489 356.994415,29.495848 
M333.927917,65.307625 
	C329.978149,76.467690 325.957550,87.603813 322.167725,98.817924 
	C321.690430,100.230240 322.427246,102.052849 322.601532,103.685356 
	C323.722015,102.421265 325.343689,101.340134 325.882629,99.863739 
	C329.720123,89.351349 333.323853,78.753815 337.025970,68.191780 
	C342.983856,51.194084 348.997101,34.215672 354.904114,17.200333 
	C356.472290,12.683223 357.737793,8.061056 359.142303,3.487133 
	C358.596252,3.106797 358.050232,2.726461 357.504181,2.346125 
	C356.337677,3.736835 354.648529,4.943536 354.084259,6.546274 
	C347.294922,25.830612 340.672089,45.173565 333.927917,65.307625 
M299.005463,86.496460 
	C301.077545,92.108192 303.149628,97.719933 305.221710,103.331665 
	C305.960907,103.156326 306.700104,102.980988 307.439301,102.805641 
	C307.329987,101.319130 307.507355,99.740517 307.064240,98.361244 
	C304.433105,90.171074 301.722137,82.005074 298.919525,73.871765 
	C291.092529,51.157570 283.234070,28.454041 275.268738,5.788239 
	C274.864136,4.636891 273.341797,3.878338 272.339905,2.936895 
	C272.069702,4.310356 271.275574,5.836380 271.623169,7.029937 
	C272.891174,11.384418 274.550934,15.624210 276.044006,19.913858 
	C283.674988,41.838200 291.300049,63.764610 299.005463,86.496460 
M338.082794,45.705528 
	C342.899658,32.796047 347.763672,19.903673 352.465240,6.952344 
	C352.971100,5.558912 352.533417,3.822962 352.533417,2.245898 
	C351.810303,2.100714 351.087219,1.955530 350.364105,1.810346 
	C338.470154,34.670895 326.576202,67.531448 314.682251,100.391998 
	C315.246307,100.741837 315.810364,101.091682 316.374451,101.441521 
	C317.264801,100.321007 318.515472,99.334877 318.991119,98.059677 
	C325.392365,80.897369 331.685699,63.694798 338.082794,45.705528 
M288.042297,24.467237 
	C285.995850,18.534336 284.087708,12.547632 281.813446,6.703389 
	C281.182251,5.081325 279.465057,3.881859 278.246094,2.488515 
	C277.779175,2.859157 277.312256,3.229798 276.845306,3.600439 
	C281.557922,16.864805 286.281525,30.125294 290.980499,43.394478 
	C297.315796,61.284378 303.601440,79.192001 310.010925,97.055237 
	C310.566620,98.603935 311.885803,99.878677 312.850311,101.280670 
	C313.441772,100.963615 314.033203,100.646568 314.624634,100.329514 
	C305.821930,75.298500 297.019196,50.267487 288.042297,24.467237 
z"/>
<path fill="#029AFF" opacity="1.000000" stroke="none" 
	d="
M719.437500,121.000000 
	C715.456726,119.992195 711.942749,118.863052 708.365112,117.997246 
	C691.567322,113.932091 679.941650,101.817039 678.735168,86.996948 
	C678.695496,86.509621 678.777039,86.012436 678.818237,85.203392 
	C687.938782,85.203392 697.034973,85.203392 706.591064,85.203392 
	C707.017578,86.410797 707.525146,87.924500 708.084778,89.418724 
	C711.074036,97.399986 721.320679,101.369637 728.800476,97.454285 
	C735.282471,94.061234 736.467529,84.090714 730.547058,79.181694 
	C727.423889,76.592110 723.532593,74.766617 719.744507,73.176437 
	C712.709290,70.223167 705.372437,67.977562 698.381470,64.931686 
	C683.406311,58.407211 676.646606,47.152946 678.061218,31.878454 
	C679.312256,18.371197 689.382446,7.621566 704.300110,4.122097 
	C707.843140,3.290962 711.516296,3.014797 715.990234,2.478185 
	C722.131714,2.996513 727.520325,3.021413 732.673340,4.135778 
	C748.988770,7.664027 760.140930,20.405634 760.620178,35.872730 
	C754.315063,35.872730 748.003906,35.640568 741.718201,35.941692 
	C736.066956,36.212429 731.622864,36.240280 729.249268,29.226963 
	C727.329102,23.553432 719.467102,21.842155 713.216125,24.111895 
	C708.405396,25.858671 705.907043,30.558004 707.046387,36.302662 
	C708.237549,42.309280 713.138733,44.767555 718.088318,46.832401 
	C727.265991,50.661118 736.708557,53.888279 745.742249,58.018921 
	C753.935852,61.765488 759.722595,68.167732 762.017151,77.109512 
	C767.462463,98.329178 753.175842,117.599358 731.164551,119.067116 
	C729.407898,119.184258 727.719910,120.331482 726.000000,121.000008 
	C723.958313,121.000000 721.916687,121.000000 719.437500,121.000000 
z"/>
<path fill="#FAFDFF" opacity="1.000000" stroke="none" 
	d="
M726.468628,121.000008 
	C727.719910,120.331482 729.407898,119.184258 731.164551,119.067116 
	C753.175842,117.599358 767.462463,98.329178 762.017151,77.109512 
	C759.722595,68.167732 753.935852,61.765488 745.742249,58.018921 
	C736.708557,53.888279 727.265991,50.661118 718.088318,46.832401 
	C713.138733,44.767555 708.237549,42.309280 707.046387,36.302662 
	C705.907043,30.558004 708.405396,25.858671 713.216125,24.111895 
	C719.467102,21.842155 727.329102,23.553432 729.249268,29.226963 
	C731.622864,36.240280 736.066956,36.212429 741.718201,35.941692 
	C748.003906,35.640568 754.315063,35.872730 760.620178,35.872730 
	C760.140930,20.405634 748.988770,7.664027 732.673340,4.135778 
	C727.520325,3.021413 722.131714,2.996513 716.408325,2.311694 
	C715.983765,1.895206 715.994019,1.639728 715.998291,1.191970 
	C732.298889,1.000000 748.597839,1.000000 764.948364,1.000000 
	C764.948364,40.881218 764.948364,80.762520 764.948364,121.000000 
	C752.314636,121.000000 739.625977,121.000000 726.468628,121.000008 
z"/>
<path fill="#019AFF" opacity="1.000000" stroke="none" 
	d="
M51.995834,118.422974 
	C35.519871,118.423164 19.543085,118.423164 3.227378,118.423164 
	C3.227378,80.350731 3.227378,42.605103 3.227378,4.544370 
	C4.315524,4.393435 5.413015,4.110307 6.510969,4.108504 
	C23.505037,4.080597 40.501881,3.909003 57.492138,4.165047 
	C66.038155,4.293835 74.251381,5.879738 81.277374,11.608198 
	C94.361214,22.275780 95.746323,53.206509 69.718315,59.800072 
	C72.419952,60.703083 74.620796,61.288948 76.702637,62.159405 
	C88.254105,66.989288 94.964928,78.029373 93.924255,90.351845 
	C92.856789,102.991646 83.156937,114.245872 70.341202,116.818535 
	C64.519714,117.987152 58.451374,117.926056 51.995834,118.422974 
M48.251217,26.106173 
	C45.797394,26.106173 43.343571,26.106173 40.688957,26.106173 
	C40.434700,28.649191 40.211452,30.882013 39.990273,33.094212 
	C37.295296,33.320587 35.037659,33.510227 32.757469,33.701763 
	C32.757469,37.023556 32.757469,39.901932 32.757469,42.865250 
	C35.429863,42.996941 37.717228,43.109657 40.060974,43.225151 
	C40.527275,45.537212 40.943508,47.601028 41.349842,49.615738 
	C44.224281,49.615738 46.810181,49.615738 49.623737,49.615738 
	C49.817158,47.247608 49.987686,45.159771 50.173519,42.884560 
	C52.864288,42.700169 55.292141,42.533791 57.830193,42.359867 
	C57.830193,39.312489 57.830193,36.573734 57.830193,33.627430 
	C54.815754,33.434807 52.080795,33.260040 49.213081,33.076790 
	C49.096142,30.715696 48.998386,28.741987 48.251217,26.106173 
M49.272404,71.299866 
	C43.863483,70.344406 40.556419,72.371597 41.652218,76.262894 
	C42.102352,77.861366 43.909645,79.799828 45.440659,80.168930 
	C46.975849,80.539040 50.129211,79.509499 50.452465,78.447708 
	C51.056900,76.462311 50.127621,74.009987 49.272404,71.299866 
M51.194080,85.240143 
	C53.144272,86.613739 54.949261,88.539848 57.111130,89.107994 
	C58.069717,89.359917 60.946823,86.753006 60.841469,85.644478 
	C60.649620,83.625870 59.313648,80.712677 57.683876,80.039352 
	C54.103088,78.559998 51.756817,80.677673 51.194080,85.240143 
M44.940857,99.052719 
	C48.893223,99.584343 51.827698,98.291000 51.392712,93.930519 
	C51.234627,92.345825 49.045582,90.077324 47.462509,89.769386 
	C45.865448,89.458733 42.468754,91.023880 42.342701,92.067116 
	C42.082748,94.218605 43.474960,96.569733 44.940857,99.052719 
M36.111351,89.139488 
	C38.183739,88.275528 40.748997,87.867767 42.135948,86.369354 
	C42.915863,85.526772 42.350754,82.298912 41.294376,81.213486 
	C40.209930,80.099205 37.620407,79.621040 35.986141,80.035095 
	C32.019836,81.039993 31.844133,85.222282 36.111351,89.139488 
z"/>
<path fill="#029AFF" opacity="1.000000" stroke="none" 
	d="
M599.848694,54.169243 
	C604.635498,61.512165 609.243103,68.541504 613.850769,75.570839 
	C614.171387,75.473007 614.492004,75.375183 614.812622,75.277351 
	C614.812622,51.753170 614.812622,28.228991 614.812622,4.417437 
	C623.741882,4.417437 632.157410,4.417437 640.999878,4.417437 
	C640.999878,42.218761 640.999878,79.925247 640.999878,118.360664 
	C632.618958,118.360664 624.191040,118.487625 615.776001,118.215919 
	C614.591736,118.177681 613.209473,116.363113 612.358887,115.079231 
	C598.021118,93.438072 583.754089,71.750008 569.465759,50.076057 
	C568.942505,49.282326 568.361206,48.526840 567.065186,46.718533 
	C567.065186,71.225174 567.065186,94.565338 567.065186,118.160934 
	C557.935608,118.160934 549.352356,118.160934 540.427185,118.160934 
	C540.427185,80.226730 540.427185,42.499390 540.427185,4.141175 
	C548.844299,4.141175 557.124756,3.991830 565.388916,4.291169 
	C566.734375,4.339904 568.350098,6.146639 569.262390,7.523966 
	C579.463623,22.924452 589.551331,38.400188 599.848694,54.169243 
z"/>
<path fill="#029AFF" opacity="1.000000" stroke="none" 
	d="
M149.206787,114.383652 
	C147.737411,115.847275 146.429977,117.802872 145.053879,117.852440 
	C136.906555,118.145935 128.743301,117.997208 119.856415,117.997208 
	C123.310844,108.621353 126.604469,99.670547 129.906189,90.722710 
	C139.912476,63.605232 150.011322,36.521175 159.824402,9.333973 
	C161.149963,5.661489 162.876068,4.614946 166.587402,4.758385 
	C174.241989,5.054224 181.917709,4.940458 189.580994,4.796253 
	C192.154114,4.747833 193.326462,5.598801 194.235199,8.081001 
	C207.256271,43.648205 220.406479,79.168137 233.504730,114.707130 
	C233.834702,115.602409 233.927078,116.585258 234.186249,117.786850 
	C224.794113,117.786850 215.683609,117.786850 206.222504,117.786850 
	C204.201965,111.926720 202.288544,105.934311 200.001541,100.088051 
	C199.495117,98.793510 197.681931,97.151031 196.447876,97.131996 
	C182.795105,96.921333 169.137878,96.999474 155.241302,96.999474 
	C153.242279,102.753662 151.289642,108.374329 149.206787,114.383652 
M162.629868,75.110085 
	C162.839813,75.723473 163.044754,76.871353 163.260406,76.873375 
	C172.778671,76.962357 182.297882,76.950241 192.309586,76.950241 
	C187.238937,61.980129 182.434769,47.796803 177.194275,32.325256 
	C172.155197,47.138954 167.528748,60.739632 162.629868,75.110085 
z"/>
<path fill="#029AFF" opacity="1.000000" stroke="none" 
	d="
M430.250000,21.301369 
	C431.960510,16.733343 433.656464,12.569221 435.024200,8.299961 
	C435.858734,5.695122 437.138092,4.690289 439.998474,4.771387 
	C447.824890,4.993286 455.671021,5.071397 463.490265,4.746905 
	C467.038544,4.599654 468.325531,6.006737 469.447388,9.080070 
	C480.896118,40.444489 492.491730,71.755302 504.044922,103.081589 
	C505.810852,107.869843 507.570099,112.660561 509.466980,117.815765 
	C499.666687,117.815765 490.539307,117.815765 481.051178,117.815765 
	C479.037628,111.926743 477.142761,105.928665 474.865845,100.079315 
	C474.361298,98.783081 472.520844,97.150642 471.273010,97.131371 
	C457.619904,96.920441 443.962311,96.999168 430.059113,96.999168 
	C427.614594,104.011078 425.216827,110.888840 422.812500,117.785431 
	C413.511475,117.785431 404.410431,117.785431 394.758453,117.785431 
	C406.627228,85.501244 418.362152,53.581085 430.250000,21.301369 
M457.619171,48.806320 
	C455.932098,43.885735 454.245056,38.965149 452.558014,34.044567 
	C452.190338,34.034916 451.822662,34.025269 451.455017,34.015617 
	C446.611053,48.202129 441.767120,62.388638 436.882263,76.694939 
	C447.287567,76.694939 456.969177,76.694939 467.011261,76.694939 
	C463.886230,67.385651 460.892365,58.467075 457.619171,48.806320 
z"/>
<path fill="#059BFF" opacity="1.000000" stroke="none" 
	d="
M305.908752,116.167061 
	C304.454437,115.843506 303.002747,115.507561 301.545349,115.198524 
	C295.264038,113.866600 291.447693,110.782646 289.271210,104.010933 
	C279.118439,72.422203 268.252838,41.062672 257.660706,9.614935 
	C256.778656,6.996150 254.964279,3.665210 260.190735,4.068869 
	C261.205353,4.147233 262.474091,6.100025 262.933441,7.427689 
	C269.674408,26.910513 276.301483,46.432777 282.948059,65.948235 
	C286.820801,77.319214 291.388550,88.517326 294.297241,100.130432 
	C296.251221,107.931656 301.214600,110.324249 307.695923,110.839851 
	C314.864197,111.410110 322.284698,111.954285 329.008911,108.390785 
	C330.613556,107.540421 332.342773,105.924736 332.916077,104.278458 
	C341.723480,78.987297 350.338623,53.629246 359.023132,28.295204 
	C361.443939,21.233358 364.026428,14.225876 366.364410,7.137284 
	C367.186371,4.645201 368.398071,2.538338 371.014557,4.121020 
	C372.083771,4.767757 372.579102,7.834934 372.071777,9.388225 
	C367.076172,24.683947 361.826538,39.896858 356.624847,55.125023 
	C351.316803,70.664619 345.583649,86.074486 340.829102,101.781044 
	C338.510834,109.439384 334.595062,114.309006 326.244629,115.604263 
	C324.464905,115.572037 323.207916,115.831673 321.950928,116.091293 
	C321.950928,116.091293 321.513123,116.069565 320.904480,116.038574 
	C318.868286,116.382202 317.440735,116.756821 316.013214,117.131439 
	C314.620209,117.101486 313.227173,117.071541 311.155579,116.782059 
	C308.954254,116.404037 307.431519,116.285545 305.908752,116.167061 
z"/>
<path fill="#0099FF" opacity="1.000000" stroke="none" 
	d="
M271.265503,27.595146 
	C268.521393,19.564472 265.968536,11.887331 263.421906,4.228895 
	C266.281647,2.717973 267.333069,3.618505 268.365906,6.588704 
	C278.122650,34.646534 288.100220,62.627552 298.005768,90.633667 
	C299.602295,95.147522 301.157837,99.675865 302.732330,104.197502 
	C302.093933,104.599205 301.455505,105.000908 300.817108,105.402618 
	C299.872101,104.350662 298.489868,103.455620 298.047607,102.223244 
	C291.302582,83.429169 284.699921,64.584084 278.018097,45.767208 
	C275.900269,39.803104 273.647705,33.886837 271.265503,27.595146 
z"/>
<path fill="#0099FF" opacity="1.000000" stroke="none" 
	d="
M356.955383,29.899134 
	C349.618103,51.270489 342.328949,72.241722 335.012482,93.203407 
	C333.839752,96.563271 332.691620,99.947441 331.218109,103.177109 
	C330.768982,104.161430 329.268707,104.666153 328.249847,105.390518 
	C328.031860,104.231133 327.331665,102.905502 327.665741,101.936470 
	C338.703644,69.920387 349.820557,37.931412 361.042511,5.979424 
	C361.455109,4.804569 363.038300,4.040829 364.075958,3.085495 
	C364.330566,4.568681 365.159668,6.240334 364.745117,7.504008 
	C362.322968,14.887572 359.609528,22.175585 356.955383,29.899134 
z"/>
<path fill="#0099FF" opacity="1.000000" stroke="none" 
	d="
M333.966858,64.904427 
	C340.672089,45.173565 347.294922,25.830612 354.084259,6.546274 
	C354.648529,4.943536 356.337677,3.736835 357.504181,2.346125 
	C358.050232,2.726461 358.596252,3.106797 359.142303,3.487133 
	C357.737793,8.061056 356.472290,12.683223 354.904114,17.200333 
	C348.997101,34.215672 342.983856,51.194084 337.025970,68.191780 
	C333.323853,78.753815 329.720123,89.351349 325.882629,99.863739 
	C325.343689,101.340134 323.722015,102.421265 322.601532,103.685364 
	C322.427246,102.052849 321.690430,100.230240 322.167725,98.817924 
	C325.957550,87.603813 329.978149,76.467690 333.966858,64.904427 
z"/>
<path fill="#0099FF" opacity="1.000000" stroke="none" 
	d="
M298.966339,86.093376 
	C291.300049,63.764610 283.674988,41.838200 276.044006,19.913858 
	C274.550934,15.624210 272.891174,11.384418 271.623169,7.029937 
	C271.275574,5.836380 272.069702,4.310356 272.339905,2.936898 
	C273.341797,3.878338 274.864136,4.636891 275.268738,5.788239 
	C283.234070,28.454041 291.092529,51.157570 298.919525,73.871765 
	C301.722137,82.005074 304.433105,90.171074 307.064240,98.361244 
	C307.507355,99.740517 307.329987,101.319130 307.439301,102.805641 
	C306.700104,102.980988 305.960907,103.156326 305.221710,103.331665 
	C303.149628,97.719933 301.077545,92.108192 298.966339,86.093376 
z"/>
<path fill="#069BFF" opacity="1.000000" stroke="none" 
	d="
M338.044312,46.103867 
	C331.685699,63.694798 325.392365,80.897369 318.991119,98.059677 
	C318.515472,99.334877 317.264801,100.321007 316.374451,101.441521 
	C315.810364,101.091682 315.246307,100.741837 314.682251,100.391998 
	C326.576202,67.531448 338.470154,34.670895 350.364105,1.810346 
	C351.087219,1.955530 351.810303,2.100714 352.533417,2.245898 
	C352.533417,3.822962 352.971100,5.558912 352.465240,6.952344 
	C347.763672,19.903673 342.899658,32.796047 338.044312,46.103867 
z"/>
<path fill="#069BFF" opacity="1.000000" stroke="none" 
	d="
M288.129395,24.851856 
	C297.019196,50.267487 305.821930,75.298500 314.624634,100.329514 
	C314.033203,100.646568 313.441772,100.963615 312.850311,101.280670 
	C311.885803,99.878677 310.566620,98.603935 310.010925,97.055237 
	C303.601440,79.192001 297.315796,61.284378 290.980499,43.394478 
	C286.281525,30.125294 281.557922,16.864805 276.845306,3.600439 
	C277.312256,3.229798 277.779175,2.859157 278.246094,2.488515 
	C279.465057,3.881859 281.182251,5.081325 281.813446,6.703389 
	C284.087708,12.547632 285.995850,18.534336 288.129395,24.851856 
z"/>
<path fill="#A3D6F7" opacity="1.000000" stroke="none" 
	d="
M305.995483,116.512222 
	C307.431519,116.285545 308.954254,116.404037 310.737549,116.796982 
	C309.359467,117.000084 307.720856,116.928726 305.995483,116.512222 
z"/>
<path fill="#A3D6F7" opacity="1.000000" stroke="none" 
	d="
M316.239502,117.412979 
	C317.440735,116.756821 318.868286,116.382202 320.688446,116.075508 
	C319.542633,116.660469 318.004211,117.177498 316.239502,117.412979 
z"/>
<path fill="#A3D6F7" opacity="1.000000" stroke="none" 
	d="
M322.029114,116.363754 
	C323.207916,115.831673 324.464905,115.572037 325.866119,115.609283 
	C324.709351,116.149506 323.408325,116.392853 322.029114,116.363754 
z"/>
<path fill="#EEF8FF" opacity="1.000000" stroke="none" 
	d="
M48.575928,26.437225 
	C48.998386,28.741987 49.096142,30.715696 49.213081,33.076790 
	C52.080795,33.260040 54.815754,33.434807 57.830193,33.627430 
	C57.830193,36.573734 57.830193,39.312489 57.830193,42.359867 
	C55.292141,42.533791 52.864288,42.700169 50.173519,42.884560 
	C49.987686,45.159771 49.817158,47.247608 49.623737,49.615738 
	C46.810181,49.615738 44.224281,49.615738 41.349842,49.615738 
	C40.943508,47.601028 40.527275,45.537212 40.060974,43.225151 
	C37.717228,43.109657 35.429863,42.996941 32.757469,42.865250 
	C32.757469,39.901932 32.757469,37.023556 32.757469,33.701763 
	C35.037659,33.510227 37.295296,33.320587 39.990273,33.094212 
	C40.211452,30.882013 40.434700,28.649191 40.688957,26.106173 
	C43.343571,26.106173 45.797394,26.106173 48.575928,26.437225 
z"/>
<path fill="#E8F6FF" opacity="1.000000" stroke="none" 
	d="
M49.554420,71.525894 
	C50.127621,74.009987 51.056900,76.462311 50.452465,78.447708 
	C50.129211,79.509499 46.975849,80.539040 45.440659,80.168930 
	C43.909645,79.799828 42.102352,77.861366 41.652218,76.262894 
	C40.556419,72.371597 43.863483,70.344406 49.554420,71.525894 
z"/>
<path fill="#F0F9FF" opacity="1.000000" stroke="none" 
	d="
M51.169083,84.869965 
	C51.756817,80.677673 54.103088,78.559998 57.683876,80.039352 
	C59.313648,80.712677 60.649620,83.625870 60.841469,85.644478 
	C60.946823,86.753006 58.069717,89.359917 57.111130,89.107994 
	C54.949261,88.539848 53.144272,86.613739 51.169083,84.869965 
z"/>
<path fill="#E9F6FF" opacity="1.000000" stroke="none" 
	d="
M44.564156,98.945724 
	C43.474960,96.569733 42.082748,94.218605 42.342701,92.067116 
	C42.468754,91.023880 45.865448,89.458733 47.462509,89.769386 
	C49.045582,90.077324 51.234627,92.345825 51.392712,93.930519 
	C51.827698,98.291000 48.893223,99.584343 44.564156,98.945724 
z"/>
<path fill="#F1FAFF" opacity="1.000000" stroke="none" 
	d="
M35.748558,89.041557 
	C31.844133,85.222282 32.019836,81.039993 35.986141,80.035095 
	C37.620407,79.621040 40.209930,80.099205 41.294376,81.213486 
	C42.350754,82.298912 42.915863,85.526772 42.135948,86.369354 
	C40.748997,87.867767 38.183739,88.275528 35.748558,89.041557 
z"/>
<path fill="#F9FDFF" opacity="1.000000" stroke="none" 
	d="
M162.766083,74.725197 
	C167.528748,60.739632 172.155197,47.138954 177.194275,32.325256 
	C182.434769,47.796803 187.238937,61.980129 192.309586,76.950241 
	C182.297882,76.950241 172.778671,76.962357 163.260406,76.873375 
	C163.044754,76.871353 162.839813,75.723473 162.766083,74.725197 
z"/>
<path fill="#F9FDFF" opacity="1.000000" stroke="none" 
	d="
M457.758850,49.177406 
	C460.892365,58.467075 463.886230,67.385651 467.011261,76.694939 
	C456.969177,76.694939 447.287567,76.694939 436.882263,76.694939 
	C441.767120,62.388638 446.611053,48.202129 451.455017,34.015617 
	C451.822662,34.025269 452.190338,34.034916 452.558014,34.044567 
	C454.245056,38.965149 455.932098,43.885735 457.758850,49.177406 
z"/>
</svg>